<svg enable-background="new 0 0 135 135" height="40px" id="Layer_1" version="1.1" viewBox="0 0 135 135" width="40px" xml:space="preserve" xmlns="http://www.w3.org/2000/svg" xmlns:xlink="http://www.w3.org/1999/xlink"><g id="icon"><g><title>Layer 1</title><g stroke="null" id="svg_10"><g stroke="null" id="svg_5" transform="matrix(5.757698078918959,0,0,5.757698078918959,56.2906650527879,28.09717109693712) "><circle stroke="null" cx="1.338959" cy="6.235621" fill="#353232" r="11" id="svg_7"/><path stroke="null" d="m-6.439238,14.013818c1.9906,1.9906 4.7406,3.2218 7.7782,3.2218c6.0751,0 11,-4.9249 11,-11c0,-3.0376 -1.2312,-5.7876 -3.2218,-7.7782l-15.5564,15.5564z" fill="#231F20" opacity="0.8" id="svg_9"/></g><ellipse stroke="null" fill="#E6C36A" stroke-width="null" cx="63.999981" cy="63.999992" id="svg_12" rx="9.743431" ry="9.743351"/><ellipse stroke="#DDDDDD" fill="none" stroke-width="4" cx="63.999981" cy="63.999992" id="svg_13" rx="51.784111" ry="21.471461"/><ellipse stroke="#DDDDDD" fill="none" stroke-width="10" cx="178.796035" cy="173.343088" id="svg_14" rx="143.498829" ry="59.499516" transform="matrix(-0.18043391441711018,0.31252070717896957,-0.31252070717896957,-0.18043391441711018,150.43415186178945,39.399508411701746) "/><ellipse stroke="#DDDDDD" fill="none" stroke-width="10" cx="180.07329" cy="177.110549" id="svg_15" rx="143.498829" ry="59.499516" transform="matrix(0.1804339144171103,0.31252070717896946,-0.31252070717896946,0.1804339144171103,86.85936780326139,-24.233384750184506) "/></g></g></g></svg>